<svg width="19" height="19" viewBox="0 0 19 19" fill="none" xmlns="http://www.w3.org/2000/svg">
<path fill-rule="evenodd" clip-rule="evenodd" d="M10.12 3.56832L15.6963 9.39863V9.39914C15.8369 9.54576 15.8763 9.76213 15.7966 9.94895C15.7169 10.1358 15.5334 10.257 15.3303 10.257H14.5698C14.4298 10.257 14.3163 10.3704 14.3163 10.5104V14.8198C14.3163 15.2398 13.9758 15.5803 13.5558 15.5803H11.2744C10.9944 15.5803 10.7674 15.3533 10.7674 15.0733V13.0454C10.7674 12.4854 10.3134 12.0314 9.75344 12.0314C9.19344 12.0314 8.73947 12.4854 8.73947 13.0454V15.0733C8.73947 15.3533 8.51249 15.5803 8.23249 15.5803H5.95106C5.53106 15.5803 5.19059 15.2398 5.19059 14.8198V10.5104C5.19059 10.3704 5.0771 10.257 4.9371 10.257H4.17662C3.9732 10.2574 3.78922 10.1362 3.70933 9.94908C3.62944 9.762 3.6691 9.54528 3.81007 9.39863L9.38689 3.56832C9.59074 3.36932 9.91614 3.36932 10.12 3.56832ZM13.9832 6.76004C13.9351 6.77936 13.88 6.7674 13.8442 6.72984L11.8518 4.64665C11.8066 4.59945 11.7813 4.53661 11.7813 4.47123V4.17313C11.7813 4.03313 11.8948 3.91964 12.0348 3.91964H13.8093C13.9493 3.91964 14.0627 4.03313 14.0627 4.17313V6.64214C14.0629 6.69401 14.0314 6.74072 13.9832 6.76004Z" fill="#76787A"/>
<mask id="mask0_39_79" style="mask-type:alpha" maskUnits="userSpaceOnUse" x="3" y="3" width="13" height="13">
<path fill-rule="evenodd" clip-rule="evenodd" d="M10.12 3.56832L15.6963 9.39863V9.39914C15.8369 9.54576 15.8763 9.76213 15.7966 9.94895C15.7169 10.1358 15.5334 10.257 15.3303 10.257H14.5698C14.4298 10.257 14.3163 10.3704 14.3163 10.5104V14.8198C14.3163 15.2398 13.9758 15.5803 13.5558 15.5803H11.2744C10.9944 15.5803 10.7674 15.3533 10.7674 15.0733V13.0454C10.7674 12.4854 10.3134 12.0314 9.75344 12.0314C9.19344 12.0314 8.73947 12.4854 8.73947 13.0454V15.0733C8.73947 15.3533 8.51249 15.5803 8.23249 15.5803H5.95106C5.53106 15.5803 5.19059 15.2398 5.19059 14.8198V10.5104C5.19059 10.3704 5.0771 10.257 4.9371 10.257H4.17662C3.9732 10.2574 3.78922 10.1362 3.70933 9.94908C3.62944 9.762 3.6691 9.54528 3.81007 9.39863L9.38689 3.56832C9.59074 3.36932 9.91614 3.36932 10.12 3.56832ZM13.9832 6.76004C13.9351 6.77936 13.88 6.7674 13.8442 6.72984L11.8518 4.64665C11.8066 4.59945 11.7813 4.53661 11.7813 4.47123V4.17313C11.7813 4.03313 11.8948 3.91964 12.0348 3.91964H13.8093C13.9493 3.91964 14.0627 4.03313 14.0627 4.17313V6.64214C14.0629 6.69401 14.0314 6.74072 13.9832 6.76004Z" fill="white"/>
</mask>
<g mask="url(#mask0_39_79)">
</g>
</svg>
